<svg width="80" height="80" viewBox="0 0 80 80" fill="none" xmlns="http://www.w3.org/2000/svg">
<path d="M22.2461 23.2974C22.6128 23.6041 22.9361 23.8908 23.2395 24.1474L40 14.4671L56.5705 24.0241L57.5639 23.1707L39.9967 13.0404L22.2461 23.2974ZM63.3474 43.5081C62.9474 43.7081 62.5341 43.8881 62.114 44.0481V52.755L51.0637 59.1252C51.3837 59.2086 51.597 59.2486 51.597 59.2486C51.2304 59.7419 50.3203 60.1086 49.5736 60.3486L50.307 61.0053L63.3407 53.485L63.3474 43.5081ZM42.7968 78.5425L46.7369 76.2658L44.4635 74.7324L43.8668 75.0724C43.5801 76.2491 43.2234 77.4091 42.7968 78.5425ZM28.3963 59.2486C28.3963 59.2486 28.613 59.2052 28.933 59.1252L17.906 52.755V44.1814C17.4868 44.0367 17.0751 43.8709 16.6726 43.6847V53.4684L29.9963 61.162L30.7897 60.4286C30.023 60.2319 28.8163 59.8286 28.3963 59.2486ZM17.866 19.2939C18.3326 19.7506 18.806 20.194 19.266 20.624L40 8.64694L60.514 20.494C60.9773 20.064 61.4407 19.6206 61.914 19.1606L40 6.51021L17.866 19.2939ZM69.0009 38.4279C68.4282 39.1825 67.8127 39.9037 67.1575 40.588V55.6651L53.1671 63.7354C53.6102 64.1886 54.0415 64.6532 54.4605 65.1287L69.0043 56.7285V38.4246L69.0009 38.4279ZM15.6292 17.0539L40.26 2.85342L64.3341 16.7439C64.9241 16.1238 65.4875 15.4972 66.0275 14.8705L40.25 0L13.9058 15.2105C14.4659 15.8105 15.0392 16.4372 15.6292 17.0539ZM31.3864 72.0356L8.07898 58.5785V27.3509C7.24562 26.4508 6.40893 25.4208 5.61224 24.3808V60.0019L31.2731 74.8124C31.2564 73.9457 31.3064 72.9857 31.3864 72.0323V72.0356ZM72.441 26.3775V58.5752L49.117 72.0423C49.2003 72.999 49.2436 73.959 49.227 74.8291L74.9145 60.0019V23.2174C74.1411 24.2774 73.2977 25.3741 72.441 26.3775ZM32.0831 66.7621L31.2997 66.3088L28.6563 66.9288L31.7697 68.7289C31.8997 67.9088 32.0031 67.2288 32.0831 66.7621ZM27.1629 63.9154L12.8658 55.6684V40.9546C12.212 40.304 11.5976 39.615 11.0257 38.8912V56.7351L25.8896 65.3187C26.2829 64.8554 26.7162 64.3821 27.1629 63.9154ZM37.6966 78.5292C37.2727 77.3938 36.9176 76.2338 36.6332 75.0557L36.0499 74.7224L33.7765 76.2624L37.6966 78.5292ZM48.837 66.2288L48.3603 66.5055C48.4336 66.9155 48.5503 67.6122 48.6803 68.4622L51.4837 66.8421L48.837 66.2288ZM39.1366 40.5713C39.5067 41.3647 39.9167 42.1813 40.2967 43.0114C40.6634 42.178 41.0734 41.3647 41.46 40.5713C44.1268 35.0445 45.4668 31.8377 42.0434 30.071L41.8934 29.9543C41.3334 29.4009 40.7867 29.1209 40.2967 29.1209C39.6779 29.1795 39.1069 29.4788 38.7066 29.9543L38.5533 30.071C35.1332 31.8377 36.4666 35.0478 39.1366 40.5713ZM76.2712 16.4772C68.3576 29.4243 51.6004 35.5445 51.6004 35.5445C81.1013 18.0772 79.9946 0.510016 79.9946 0.510016C69.4209 20.4107 51.6637 31.1743 45.1535 34.6144C44.7602 36.5912 43.6835 38.8179 42.5768 41.108C42.0101 42.288 41.4167 43.5147 40.8767 44.7881L40.3033 46.1081L39.7367 44.7881C39.1966 43.5314 38.6033 42.308 38.0333 41.108C36.9966 38.9512 35.9799 36.8478 35.5332 34.9645C29.6363 31.9477 10.9724 21.1373 0.00539064 0.506683C0.00539064 0.506683 -1.10131 18.0739 28.3996 35.5411C28.3996 35.5411 11.6491 29.4209 3.72551 16.4739C3.72551 16.4739 9.37236 33.5511 26.3896 37.4212C26.3896 37.4212 15.6526 37.2779 9.54903 30.9543C9.54903 30.9543 9.19902 38.5612 25.5762 39.7079C25.5762 39.7079 17.526 41.6613 13.5858 38.0812C13.5858 38.0812 13.7792 41.938 25.8262 42.308C25.8262 42.308 31.1364 41.938 34.5132 44.2981C34.4032 48.6182 35.4132 53.0984 36.4266 56.4485C36.2499 56.5685 36.1965 57.4252 30.2064 59.3152C30.2064 59.4119 34.0465 60.3453 35.9165 58.5819C36.3166 59.0052 31.5664 60.3019 27.1096 65.8754C27.1629 65.6554 32.9398 63.772 37.0099 61.952C37.0566 61.9286 34.0065 64.9654 33.3831 74.009C33.4898 73.9757 35.2699 71.0623 38.0699 67.8188C37.8699 71.9923 38.6166 76.1524 40.2367 80.0026C41.7931 76.3224 42.5356 72.3494 42.4134 68.3555C44.9535 71.379 46.5469 73.9757 46.6469 74.009C46.0302 64.9654 42.9668 61.9286 43.0168 61.952C47.0702 63.772 52.8704 65.6388 52.9204 65.8754C48.4703 60.3019 43.6835 59.0052 44.1101 58.5852C45.9769 60.3386 49.8337 59.4052 49.8203 59.3186C43.7601 57.4052 43.7768 56.5551 43.5935 56.4485C44.6101 53.1084 45.6269 48.6249 45.5268 44.2948C48.9103 41.948 54.1838 42.328 54.1838 42.328C66.2308 41.9613 66.4242 38.1012 66.4242 38.1012C62.4841 41.6813 54.4338 39.7279 54.4338 39.7279C70.811 38.5846 70.461 30.9777 70.461 30.9777C64.3474 37.2779 53.6271 37.4212 53.6271 37.4212C70.6276 33.5544 76.2712 16.4772 76.2712 16.4772Z" fill="#00CBC6"/>
</svg>
